# Blender 4.4.0
# www.blender.org
mtllib hand.mtl
o hand
v 0.016735 0.090129 0.064432
v 0.017134 -0.089271 0.063614
v 0.031590 -0.000559 0.006214
v -0.017054 -0.095525 0.022121
v -0.017510 -0.097908 0.051666
v -0.031598 -0.001987 0.001153
v -0.025981 0.075770 -0.005082
v -0.031636 -0.000579 0.005973
v 0.017033 -0.096802 0.030322
v 0.031616 -0.001861 0.001180
v 0.017585 -0.097407 0.051985
v 0.018556 0.094602 0.056617
v -0.016804 -0.091906 0.006295
v -0.016812 -0.087533 -0.001206
v 0.016230 -0.099538 0.051584
v -0.000041 -0.103990 0.005691
v -0.000017 -0.103743 -0.009199
v -0.003617 -0.101158 -0.012610
v -0.003430 -0.102598 -0.008964
v -0.025270 0.082065 0.005197
v -0.028011 0.041784 -0.006396
v -0.000113 0.092808 0.065962
v -0.012567 0.093712 0.065168
v -0.014422 0.091276 0.065690
v -0.017255 -0.090700 0.063082
v -0.015472 -0.090706 0.065190
v -0.016767 0.090252 0.064332
v 0.016956 -0.091603 0.005563
v 0.017607 -0.093848 0.058448
v 0.012506 -0.100188 0.056894
v 0.015551 0.100200 0.054673
v 0.019269 0.098494 0.044942
v 0.016218 0.100285 0.045870
v 0.001917 -0.045520 -0.025659
v 0.028015 0.042042 -0.006350
v 0.003810 -0.082966 -0.024449
v 0.020671 0.093692 0.043308
v 0.025448 0.081181 0.003501
v -0.003637 -0.083586 -0.024606
v -0.016533 -0.082236 -0.005118
v -0.014017 -0.100091 0.056027
v -0.016013 -0.099629 0.049301
v -0.003215 -0.087766 -0.023884
v -0.012988 -0.092496 0.065712
v -0.000506 -0.092945 0.065953
v 0.013540 0.092672 0.065688
v 0.013425 -0.091927 0.065731
v -0.019229 0.097261 0.050588
v 0.016558 -0.085132 -0.003873
v 0.003495 -0.102716 -0.008029
v 0.023869 0.090401 0.004368
v 0.022708 0.093736 0.014340
v 0.026034 0.075298 -0.005031
v 0.024817 0.074378 -0.007156
v -0.001500 -0.045870 -0.025925
v -0.000834 0.080260 -0.007322
v 0.022959 0.077901 -0.007399
v -0.022761 0.080174 -0.006910
v 0.000032 -0.099451 -0.017161
v -0.016632 -0.098554 0.054734
v 0.003602 -0.101195 -0.012628
v -0.001617 0.097471 0.062307
v 0.015718 -0.091780 0.064913
v -0.018449 0.092016 0.058393
v -0.000627 -0.087975 -0.024962
v 0.003076 -0.087973 -0.023979
v 0.019802 0.097011 0.020914
v 0.009942 0.100035 0.058341
v 0.017129 0.099067 0.054305
v -0.000314 0.094615 0.007575
v -0.000016 0.098496 0.027082
v -0.000337 0.086562 -0.004163
v 0.022314 0.088250 -0.001933
v 0.022377 0.083355 -0.005526
v -0.021325 0.090927 0.000980
v -0.022733 0.085434 -0.004120
v -0.024495 0.085892 -0.001833
v 0.001843 -0.084002 -0.025525
v -0.024650 0.076668 -0.006932
v 0.013139 -0.094063 0.064683
v -0.009324 -0.099983 0.058489
v -0.019067 0.097697 0.024627
v -0.004494 0.100426 0.058119
v -0.014623 0.100168 0.055735
v 0.015805 -0.099416 0.054970
v 0.021343 0.094333 0.008942
v -0.000173 0.090995 0.000577
v 0.021483 0.091795 0.002684
v 0.024515 0.081703 -0.005051
v 0.024729 0.085740 -0.001232
v -0.020658 0.094668 0.009538
v 0.001191 -0.100301 0.058623
v 0.000470 -0.096656 0.063078
v 0.015397 0.092906 0.064556
v -0.000868 -0.082548 -0.025870
v -0.023556 0.091166 0.004608
v -0.014617 -0.093442 0.064500
v -0.023026 0.092897 0.009877
v -0.021822 0.095442 0.021756
v -0.018193 0.099518 0.043814
v -0.016046 0.093209 0.063617
v -0.016995 0.099363 0.054115
v 0.016735 0.090129 0.064432
v 0.016735 0.090129 0.064432
v 0.016735 0.090129 0.064432
v 0.017134 -0.089271 0.063614
v -0.017054 -0.095525 0.022121
v -0.017510 -0.097908 0.051666
v -0.025981 0.075770 -0.005082
v 0.017033 -0.096802 0.030322
v 0.017033 -0.096802 0.030322
v 0.031616 -0.001861 0.001180
v 0.017585 -0.097407 0.051985
v -0.016804 -0.091906 0.006295
v 0.016230 -0.099538 0.051584
v -0.000017 -0.103743 -0.009199
v -0.003617 -0.101158 -0.012610
v -0.003430 -0.102598 -0.008964
v -0.028011 0.041784 -0.006396
v -0.028011 0.041784 -0.006396
v -0.000113 0.092808 0.065962
v -0.012567 0.093712 0.065168
v -0.014422 0.091276 0.065690
v -0.017255 -0.090700 0.063082
v -0.017255 -0.090700 0.063082
v -0.015472 -0.090706 0.065190
v -0.015472 -0.090706 0.065190
v -0.016767 0.090252 0.064332
v -0.016767 0.090252 0.064332
v 0.016956 -0.091603 0.005563
v 0.012506 -0.100188 0.056894
v 0.012506 -0.100188 0.056894
v 0.015551 0.100200 0.054673
v 0.015551 0.100200 0.054673
v 0.019269 0.098494 0.044942
v 0.016218 0.100285 0.045870
v 0.028015 0.042042 -0.006350
v 0.028015 0.042042 -0.006350
v -0.014017 -0.100091 0.056027
v -0.014017 -0.100091 0.056027
v -0.003215 -0.087766 -0.023884
v -0.012988 -0.092496 0.065712
v -0.012988 -0.092496 0.065712
v -0.000506 -0.092945 0.065953
v 0.013540 0.092672 0.065688
v 0.013425 -0.091927 0.065731
v -0.019229 0.097261 0.050588
v -0.019229 0.097261 0.050588
v 0.016558 -0.085132 -0.003873
v 0.023869 0.090401 0.004368
v 0.022708 0.093736 0.014340
v 0.024817 0.074378 -0.007156
v 0.022959 0.077901 -0.007399
v -0.022761 0.080174 -0.006910
v 0.000032 -0.099451 -0.017161
v 0.000032 -0.099451 -0.017161
v 0.000032 -0.099451 -0.017161
v 0.000032 -0.099451 -0.017161
v -0.016632 -0.098554 0.054734
v -0.016632 -0.098554 0.054734
v 0.003602 -0.101195 -0.012628
v 0.015718 -0.091780 0.064913
v 0.015718 -0.091780 0.064913
v 0.015718 -0.091780 0.064913
v -0.000627 -0.087975 -0.024962
v -0.000627 -0.087975 -0.024962
v 0.003076 -0.087973 -0.023979
v 0.019802 0.097011 0.020914
v 0.009942 0.100035 0.058341
v 0.017129 0.099067 0.054305
v 0.022314 0.088250 -0.001933
v 0.022377 0.083355 -0.005526
v -0.021325 0.090927 0.000980
v -0.022733 0.085434 -0.004120
v -0.024495 0.085892 -0.001833
v -0.024650 0.076668 -0.006932
v 0.013139 -0.094063 0.064683
v -0.009324 -0.099983 0.058489
v -0.019067 0.097697 0.024627
v -0.004494 0.100426 0.058119
v -0.014623 0.100168 0.055735
v -0.014623 0.100168 0.055735
v 0.015805 -0.099416 0.054970
v 0.021343 0.094333 0.008942
v 0.021483 0.091795 0.002684
v 0.024729 0.085740 -0.001232
v -0.020658 0.094668 0.009538
v 0.001191 -0.100301 0.058623
v 0.015397 0.092906 0.064556
v -0.000868 -0.082548 -0.025870
v -0.023556 0.091166 0.004608
v -0.014617 -0.093442 0.064500
v -0.014617 -0.093442 0.064500
v -0.023026 0.092897 0.009877
v -0.021822 0.095442 0.021756
v -0.021822 0.095442 0.021756
v -0.018193 0.099518 0.043814
v -0.018193 0.099518 0.043814
v -0.018193 0.099518 0.043814
v -0.016046 0.093209 0.063617
v -0.016995 0.099363 0.054115
v -0.016995 0.099363 0.054115
v -0.016995 0.099363 0.054115
vn 0.9710 0.0056 0.2391
vn 0.9589 -0.1272 0.2538
vn 0.9927 -0.0111 0.1205
vn -0.9859 -0.1624 -0.0407
vn -0.9822 -0.1724 0.0742
vn -0.9749 -0.0932 -0.2024
vn -0.9953 0.0910 -0.0342
vn -0.9962 0.0076 0.0864
vn 0.9863 -0.1618 -0.0335
vn 0.9974 -0.0583 -0.0413
vn 0.9907 -0.1339 0.0226
vn 0.9294 0.2609 0.2611
vn -0.9833 -0.1660 -0.0748
vn -0.8883 -0.3140 -0.3351
vn 0.3319 -0.9433 -0.0033
vn -0.0102 -0.9995 0.0307
vn 0.2842 -0.9379 -0.1988
vn -0.7417 -0.5251 -0.4173
vn -0.6995 -0.6971 -0.1574
vn -0.7592 -0.6099 -0.2270
vn -0.9887 0.1449 0.0389
vn -0.9925 0.0633 -0.1045
vn -0.0157 0.0606 0.9980
vn -0.0443 0.2414 0.9694
vn -0.1978 0.0616 0.9783
vn -0.7635 -0.0024 0.6458
vn -0.5087 -0.0012 0.8609
vn -0.6418 -0.0010 0.7669
vn 0.9816 -0.1651 -0.0965
vn 0.9257 -0.2900 0.2428
vn 0.1637 -0.9851 0.0535
vn 0.5560 0.8284 0.0672
vn 0.5863 0.8099 0.0163
vn 0.5070 0.8619 0.0025
vn 0.3475 0.0432 -0.9367
vn 0.6273 -0.0055 -0.7787
vn 0.6863 -0.0851 -0.7223
vn 0.9831 0.1543 0.0986
vn 0.9930 0.1148 0.0258
vn -0.6485 -0.0930 -0.7555
vn -0.8641 -0.1922 -0.4652
vn -0.9738 -0.0997 0.2044
vn -0.2752 -0.9594 0.0627
vn -0.5215 -0.8532 -0.0037
vn -0.6939 -0.3990 -0.5995
vn -0.0820 -0.0005 0.9966
vn 0.0055 -0.0000 1.0000
vn 0.2519 0.0409 0.9669
vn 0.1784 0.0001 0.9840
vn -0.9892 0.0985 0.1084
vn 0.8464 -0.5313 -0.0364
vn 0.8554 -0.5067 0.1074
vn 0.8393 -0.5420 0.0436
vn 0.7984 -0.0853 -0.5961
vn 0.8291 -0.2871 -0.4797
vn 0.5502 -0.8217 -0.1484
vn 0.7610 -0.6050 -0.2342
vn 0.6518 -0.7497 -0.1145
vn 0.9472 0.2933 0.1299
vn 0.9866 0.1553 0.0496
vn 0.9779 0.1974 0.0691
vn 0.9924 0.0633 -0.1055
vn 0.9591 0.1293 -0.2517
vn 0.4142 0.0610 -0.9081
vn -0.1673 0.0659 -0.9837
vn 0.0025 0.3064 -0.9519
vn 0.1009 0.1767 -0.9791
vn -0.0666 0.2996 -0.9517
vn -0.6223 -0.0035 -0.7828
vn -0.4619 -0.5352 -0.7072
vn -0.9339 -0.2926 0.2056
vn 0.1688 -0.8681 -0.4669
vn 0.2645 -0.8865 -0.3797
vn -0.6313 -0.7713 0.0807
vn -0.7559 -0.6547 -0.0021
vn -0.2870 -0.9336 -0.2143
vn 0.0001 0.7181 0.6960
vn 0.0082 0.6185 0.7857
vn 0.1263 0.7027 0.7002
vn -0.2141 0.6971 0.6843
vn 0.4322 0.1004 0.8962
vn 0.3512 0.0002 0.9363
vn -0.9523 0.1448 0.2685
vn -0.9382 0.1522 0.3108
vn -0.3604 -0.5384 -0.7617
vn 0.7413 -0.3671 -0.5619
vn 0.6778 -0.0018 0.7353
vn 0.6292 0.7755 -0.0512
vn 0.1798 0.7687 0.6138
vn 0.7754 0.5117 0.3701
vn 0.0008 0.9495 -0.3139
vn -0.0030 0.9905 -0.1378
vn 0.0249 0.9836 -0.1785
vn 0.8518 0.0713 -0.5191
vn 0.7593 0.1732 -0.6273
vn -0.0054 0.5930 -0.8052
vn 0.0261 0.7107 -0.7030
vn 0.0249 0.4590 -0.8881
vn -0.5456 0.7133 -0.4399
vn -0.6416 0.4565 -0.6164
vn -0.6953 0.4885 -0.5272
vn 0.2579 -0.1047 -0.9605
vn -0.3609 0.0759 -0.9295
vn -0.7163 -0.6895 -0.1072
vn -0.1784 -0.8657 -0.4677
vn -0.2506 -0.8804 -0.4026
vn -0.9855 0.1690 -0.0166
vn 0.0112 -0.5600 0.8284
vn 0.1174 -0.6257 0.7712
vn 0.1881 -0.4529 0.8715
vn -0.0236 -0.9972 0.0715
vn -0.0207 0.9867 -0.1612
vn -0.0830 0.8015 0.5922
vn -0.0026 0.9991 -0.0419
vn -0.0178 0.9989 -0.0438
vn 0.0052 1.0000 -0.0027
vn 0.7416 -0.5171 -0.4273
vn 0.7514 -0.5014 0.4291
vn 0.7210 -0.5876 0.3671
vn 0.2644 -0.9620 0.0677
vn 0.5068 -0.6886 0.5186
vn 0.4707 -0.7117 0.5214
vn 0.0311 0.9547 -0.2960
vn -0.0308 0.5819 -0.8127
vn 0.0055 0.8128 -0.5826
vn 0.0259 0.8753 -0.4828
vn -0.8257 0.0710 -0.5596
vn -0.8375 0.1736 -0.5181
vn -0.7659 0.2667 -0.5850
vn 0.6887 0.3444 -0.6381
vn 0.6531 0.5649 -0.5044
vn 0.6982 0.5408 -0.4690
vn -0.0263 0.9541 -0.2982
vn -0.3664 0.7442 0.5584
vn 0.9737 -0.1666 -0.1554
vn 0.0485 -0.7773 0.6273
vn -0.0107 -0.7008 0.7133
vn -0.0243 0.9997 0.0078
vn 0.0012 0.9998 0.0207
vn 0.6954 0.6558 -0.2939
vn 0.6862 0.7088 -0.1637
vn 0.7157 0.6940 -0.0778
vn 0.5939 0.7998 0.0867
vn 0.5868 0.6232 0.5170
vn 0.4669 0.7080 0.5298
vn -0.0251 0.8173 -0.5757
vn 0.9795 0.1751 -0.0998
vn 0.6397 0.6925 -0.3335
vn 0.0827 -0.0817 -0.9932
vn -0.3846 -0.1240 -0.9147
vn -0.3240 -0.9289 -0.1795
vn -0.1260 -0.7466 0.6532
vn -0.0054 -0.9976 0.0696
vn -0.9824 0.1860 0.0147
vn 0.3411 -0.3354 -0.8781
vn 0.2162 -0.5404 -0.8132
vn 0.1700 -0.3359 -0.9264
vn 0.5562 -0.5285 -0.6414
vn 0.3254 -0.4513 0.8310
vn 0.1010 -0.7860 0.6099
vn 0.4917 0.1990 0.8477
vn 0.8283 0.3808 0.4109
vn 0.5093 0.2916 -0.8097
vn -0.1937 -0.7442 0.6393
vn -0.0737 -0.6838 0.7260
vn -0.6080 -0.6449 0.4630
vn -0.6976 -0.5137 0.4995
vn -0.6839 -0.5788 0.4441
vn -0.4238 -0.3438 0.8380
vn -0.6058 0.7813 -0.1504
vn -0.5901 0.8026 -0.0872
vn -0.5582 0.8088 -0.1850
vn -0.0222 0.9970 -0.0738
vn -0.5683 0.7573 -0.3218
vn 0.4945 0.4214 -0.7602
vn -0.2861 -0.7635 0.5789
vn -0.7356 -0.4425 0.5129
vn -0.7091 -0.3726 0.5987
vn -0.8796 0.3414 0.3312
vn -0.8734 0.3619 0.3260
vn -0.8682 0.3725 0.3279
vn -0.9835 0.1666 0.0702
vn -0.9820 0.1821 0.0494
vn -0.4906 0.5641 0.6642
vn -0.5758 0.3221 0.7514
vn -0.4982 0.4042 0.7671
vn -0.6547 0.3569 -0.6663
vn -0.3545 0.9334 0.0553
vn -0.5823 0.8093 -0.0769
vn -0.8083 0.5844 0.0711
vn -0.8518 0.5221 0.0437
vn -0.7597 0.6429 0.0980
vn -0.5610 0.6682 0.4887
vn -0.3685 -0.1812 -0.9118
vn -0.3906 -0.1688 -0.9050
vn -0.6021 0.7970 -0.0482
s 1
f 105//1 106//2 3//3
f 107//4 108//5 6//6
f 109//7 6//6 8//8
f 111//9 112//10 113//11
f 112//10 3//3 113//11
f 12//12 105//1 3//3
f 114//13 6//6 14//14
f 8//8 6//6 108//5
f 107//4 6//6 114//13
f 115//15 16//16 116//17
f 117//18 118//19 13//20
f 20//21 109//7 8//8
f 120//22 6//6 109//7
f 121//23 122//24 123//25
f 125//26 127//27 129//28
f 130//29 112//10 111//9
f 106//2 29//30 3//3
f 29//30 113//11 3//3
f 132//31 16//16 115//15
f 134//32 135//33 136//34
f 34//35 138//36 36//37
f 37//38 3//3 38//39
f 6//6 39//40 40//41
f 124//42 8//8 108//5
f 140//43 42//44 16//16
f 117//18 14//14 141//45
f 121//23 123//25 143//46
f 143//46 144//47 121//23
f 145//48 121//23 144//47
f 144//47 146//49 145//48
f 20//21 8//8 148//50
f 110//51 11//52 15//53
f 36//37 10//54 149//55
f 50//56 28//57 9//58
f 10//54 36//37 138//36
f 12//12 37//38 32//59
f 37//38 12//12 3//3
f 37//38 38//39 150//60
f 37//38 151//61 32//59
f 151//61 37//38 150//60
f 112//10 35//62 53//63
f 112//10 53//63 38//39
f 112//10 38//39 3//3
f 152//64 138//36 34//35
f 55//65 56//66 153//67
f 56//66 55//65 154//68
f 153//67 152//64 34//35
f 39//40 6//6 21//69
f 158//70 117//18 141//45
f 40//41 39//40 141//45
f 14//14 40//41 141//45
f 14//14 6//6 40//41
f 160//71 124//42 108//5
f 155//72 161//73 116//17
f 42//44 159//74 5//75
f 16//16 42//44 17//76
f 62//77 22//78 46//79
f 22//78 62//77 23//80
f 103//81 145//48 164//82
f 146//49 164//82 145//48
f 124//42 64//83 8//8
f 64//83 124//42 27//84
f 64//83 148//50 8//8
f 166//85 158//70 141//45
f 167//86 36//37 149//55
f 63//87 2//87 1//87
f 136//34 135//33 168//88
f 169//89 62//77 46//79
f 32//59 170//90 12//12
f 70//91 71//92 67//93
f 53//63 137//94 54//95
f 72//96 171//97 172//98
f 173//99 174//100 175//101
f 78//102 55//65 34//35
f 55//65 176//103 154//68
f 4//104 42//44 5//75
f 50//56 115//15 116//17
f 59//105 17//76 18//106
f 109//7 20//21 77//107
f 123//25 127//27 143//46
f 129//28 127//27 123//25
f 45//108 177//109 47//110
f 140//43 16//16 178//111
f 179//112 71//92 70//91
f 62//77 180//113 23//80
f 33//114 182//115 83//116
f 149//55 28//57 61//117
f 61//117 28//57 50//56
f 161//73 50//56 116//17
f 162//118 183//119 29//30
f 85//120 132//31 115//15
f 80//121 183//119 162//118
f 183//119 80//121 131//122
f 9//58 115//15 50//56
f 183//119 15//53 11//52
f 11//52 29//30 183//119
f 180//113 62//77 169//89
f 34//35 36//37 78//102
f 70//91 67//93 184//123
f 71//92 33//114 67//93
f 154//68 76//124 72//96
f 171//97 87//125 185//126
f 72//96 172//98 56//66
f 56//66 172//98 153//67
f 34//35 55//65 153//67
f 21//69 176//103 55//65
f 119//127 7//128 79//129
f 89//130 73//131 186//132
f 39//40 21//69 55//65
f 187//133 179//112 70//91
f 84//134 23//80 180//113
f 130//29 49//135 112//10
f 188//136 177//109 93//137
f 133//138 33//114 68//139
f 68//139 33//114 83//116
f 51//140 86//141 52//142
f 69//143 135//33 134//32
f 46//79 189//144 169//89
f 189//144 31//145 169//89
f 189//144 12//12 170//90
f 76//124 75//146 72//96
f 90//147 53//63 89//130
f 86//141 51//140 88//148
f 75//146 70//91 87//125
f 87//125 70//91 185//126
f 190//149 55//65 78//102
f 39//40 55//65 95//150
f 14//14 117//18 13//20
f 42//44 140//43 159//74
f 19//151 17//76 42//44
f 118//19 4//104 13//20
f 45//108 93//137 177//109
f 188//136 93//137 81//152
f 16//16 132//31 92//153
f 92//153 178//111 16//16
f 191//154 77//107 20//21
f 66//155 157//156 65//157
f 65//157 78//102 66//155
f 156//158 167//86 61//117
f 149//55 61//117 167//86
f 106//2 162//118 29//30
f 177//109 163//159 47//110
f 177//109 188//136 30//160
f 78//102 36//37 66//155
f 189//144 170//90 31//145
f 94//161 145//48 103//81
f 12//12 189//144 104//162
f 70//91 184//123 185//126
f 168//88 52//142 86//141
f 52//142 168//88 135//33
f 57//163 89//130 54//95
f 53//63 90//147 38//39
f 90//147 150//60 38//39
f 75//146 87//125 72//96
f 72//96 87//125 171//97
f 56//66 154//68 72//96
f 42//44 4//104 118//19
f 19//151 18//106 17//76
f 193//164 81//152 44//165
f 81//152 93//137 44//165
f 41//166 97//167 60//168
f 26//169 192//169 142//169
f 194//170 196//171 91//172
f 199//173 33//114 71//92
f 182//115 33//114 199//173
f 96//174 173//99 175//101
f 190//149 78//102 65//157
f 73//131 89//130 74//175
f 53//63 54//95 89//130
f 73//131 88//148 51//140
f 186//132 73//131 51//140
f 139//176 81//152 193//164
f 44//165 93//137 45//108
f 25//177 97//167 126//178
f 200//179 147//180 64//83
f 64//83 27//84 200//179
f 203//181 147//180 200//179
f 96//174 194//170 91//172
f 148//50 195//182 20//21
f 195//182 98//183 20//21
f 98//183 191//154 20//21
f 96//174 91//172 173//99
f 84//134 101//184 23//80
f 128//185 24//186 101//184
f 89//130 57//163 74//175
f 175//101 174//100 79//129
f 79//129 174//100 58//187
f 79//129 7//128 175//101
f 201//188 181//188 100//188
f 91//172 196//171 82//189
f 48//190 197//190 99//191
f 197//190 48//190 102//192
f 75//146 187//133 70//91
f 84//134 202//193 101//184
f 24//186 23//80 101//184
f 43//194 95//150 165//195
f 25//177 60//168 97//167
f 179//112 199//173 71//92
f 43//194 39//40 95//150
f 198//196 82//189 196//171
